<svg width="512" height="512" viewBox="0 0 512 512" fill="none" xmlns="http://www.w3.org/2000/svg">
<rect width="512" height="512" fill="black"/>
<path d="M186.864 394C186.438 394 186.075 393.872 185.776 393.616C185.52 393.317 185.392 392.955 185.392 392.528V362.256C185.392 361.829 185.52 361.467 185.776 361.168C186.075 360.869 186.438 360.72 186.864 360.72H189.808C190.235 360.72 190.598 360.869 190.896 361.168C191.195 361.467 191.344 361.829 191.344 362.256V365.072C193.094 362.171 196.08 360.72 200.304 360.72H202.8C203.227 360.72 203.568 360.869 203.824 361.168C204.123 361.424 204.272 361.765 204.272 362.192V364.816C204.272 365.243 204.123 365.584 203.824 365.84C203.568 366.096 203.227 366.224 202.8 366.224H198.96C196.656 366.224 194.843 366.907 193.52 368.272C192.198 369.595 191.536 371.408 191.536 373.712V392.528C191.536 392.955 191.387 393.317 191.088 393.616C190.79 393.872 190.427 394 190 394H186.864ZM222.392 394.64C217.997 394.64 214.477 393.296 211.832 390.608C209.229 387.877 207.8 384.165 207.544 379.472L207.48 377.296L207.544 375.184C207.842 370.576 209.293 366.907 211.896 364.176C214.541 361.445 218.018 360.08 222.328 360.08C227.064 360.08 230.733 361.595 233.336 364.624C235.938 367.611 237.24 371.664 237.24 376.784V377.872C237.24 378.299 237.09 378.661 236.792 378.96C236.536 379.216 236.194 379.344 235.768 379.344H213.624V379.92C213.752 382.693 214.584 385.061 216.12 387.024C217.698 388.944 219.768 389.904 222.328 389.904C224.29 389.904 225.89 389.52 227.128 388.752C228.408 387.941 229.346 387.109 229.944 386.256C230.328 385.744 230.605 385.445 230.776 385.36C230.989 385.232 231.352 385.168 231.864 385.168H235C235.384 385.168 235.704 385.275 235.96 385.488C236.216 385.701 236.344 386 236.344 386.384C236.344 387.323 235.746 388.453 234.552 389.776C233.4 391.099 231.757 392.251 229.624 393.232C227.533 394.171 225.122 394.64 222.392 394.64ZM231.16 374.928V374.736C231.16 371.792 230.349 369.403 228.728 367.568C227.149 365.691 225.016 364.752 222.328 364.752C219.64 364.752 217.506 365.691 215.928 367.568C214.392 369.403 213.624 371.792 213.624 374.736V374.928H231.16ZM254.172 394.64C252.082 394.64 250.14 394.213 248.348 393.36C246.556 392.507 245.127 391.355 244.06 389.904C243.036 388.411 242.524 386.768 242.524 384.976C242.524 382.16 243.676 379.856 245.98 378.064C248.327 376.229 251.484 375.035 255.452 374.48L264.988 373.136V371.28C264.988 366.928 262.492 364.752 257.5 364.752C255.623 364.752 254.087 365.157 252.892 365.968C251.698 366.736 250.802 367.653 250.204 368.72C250.076 369.104 249.906 369.381 249.692 369.552C249.522 369.723 249.266 369.808 248.924 369.808H246.172C245.788 369.808 245.447 369.68 245.148 369.424C244.892 369.125 244.764 368.784 244.764 368.4C244.807 367.376 245.276 366.224 246.172 364.944C247.111 363.621 248.54 362.491 250.46 361.552C252.38 360.571 254.748 360.08 257.564 360.08C262.343 360.08 265.778 361.211 267.868 363.472C269.959 365.691 271.004 368.464 271.004 371.792V392.528C271.004 392.955 270.855 393.317 270.556 393.616C270.3 393.872 269.959 394 269.532 394H266.588C266.162 394 265.799 393.872 265.5 393.616C265.244 393.317 265.116 392.955 265.116 392.528V389.776C264.178 391.141 262.812 392.293 261.02 393.232C259.228 394.171 256.946 394.64 254.172 394.64ZM255.516 389.84C258.29 389.84 260.551 388.944 262.3 387.152C264.092 385.317 264.988 382.693 264.988 379.28V377.488L257.564 378.576C254.535 379.003 252.252 379.728 250.716 380.752C249.18 381.733 248.412 382.992 248.412 384.528C248.412 386.235 249.116 387.557 250.524 388.496C251.932 389.392 253.596 389.84 255.516 389.84ZM281.677 394C281.25 394 280.887 393.872 280.589 393.616C280.333 393.317 280.205 392.955 280.205 392.528V362.192C280.205 361.765 280.333 361.424 280.589 361.168C280.887 360.869 281.25 360.72 281.677 360.72H284.557C284.983 360.72 285.325 360.869 285.581 361.168C285.879 361.424 286.029 361.765 286.029 362.192V364.432C288.247 361.531 291.341 360.08 295.309 360.08C300.045 360.08 303.394 362.043 305.357 365.968C306.381 364.176 307.831 362.747 309.709 361.68C311.586 360.613 313.698 360.08 316.045 360.08C319.543 360.08 322.402 361.275 324.621 363.664C326.839 366.053 327.949 369.509 327.949 374.032V392.528C327.949 392.955 327.799 393.317 327.501 393.616C327.245 393.872 326.903 394 326.477 394H323.469C323.042 394 322.679 393.872 322.381 393.616C322.125 393.317 321.997 392.955 321.997 392.528V374.608C321.997 371.28 321.293 368.891 319.885 367.44C318.519 365.989 316.706 365.264 314.445 365.264C312.439 365.264 310.711 366.011 309.261 367.504C307.81 368.955 307.085 371.323 307.085 374.608V392.528C307.085 392.955 306.935 393.317 306.637 393.616C306.381 393.872 306.039 394 305.613 394H302.605C302.178 394 301.815 393.872 301.517 393.616C301.261 393.317 301.133 392.955 301.133 392.528V374.608C301.133 371.28 300.407 368.891 298.957 367.44C297.549 365.989 295.757 365.264 293.581 365.264C291.575 365.264 289.847 366.011 288.397 367.504C286.946 368.955 286.221 371.301 286.221 374.544V392.528C286.221 392.955 286.071 393.317 285.773 393.616C285.517 393.872 285.175 394 284.749 394H281.677Z" fill="#5865F2"/>
<path d="M188.399 339C186.479 339 184.847 338.424 183.503 337.272C182.351 335.928 181.775 334.296 181.775 332.376V144.312C181.775 142.2 182.351 140.568 183.503 139.416C184.847 138.072 186.479 137.4 188.399 137.4H253.775C282.767 137.4 303.695 143.928 316.559 156.984C329.423 169.848 336.143 189.336 336.719 215.448C336.911 221.016 337.007 228.504 337.007 237.912C337.007 247.32 336.911 254.904 336.719 260.664C336.143 278.904 333.071 293.784 327.503 305.304C322.127 316.632 313.583 325.08 301.871 330.648C290.159 336.216 274.607 339 255.215 339H188.399ZM253.775 314.52C267.023 314.52 277.487 312.696 285.167 309.048C293.039 305.4 298.703 299.64 302.159 291.768C305.807 283.704 307.823 272.952 308.207 259.512C308.591 247.992 308.783 240.792 308.783 237.912C308.783 234.84 308.591 227.736 308.207 216.6C307.823 197.592 303.311 183.768 294.671 175.128C286.031 166.296 271.919 161.88 252.335 161.88H209.999V314.52H253.775Z" fill="#5865F2"/>
</svg>
